#!OML:ASF F:\VICON\USERDATA\INSTALL\rory3\rory3.ASF
:FULLY-SPECIFIED
:DEGREES
993
root 7.42441 14.2956 -12.3145 -360.509 -38.9776 354.321
lowerback 20.6245 4.50534 -7.4346
upperback 0.306082 4.45364 2.53799
thorax -12.0761 2.5994 5.71998
lowerneck -10.1227 -10.3171 -7.27827
upperneck 15.0304 -14.4074 8.38945
head 7.42089 -6.69487 2.41301
rclavicle -2.98177e-015 7.95139e-015
rhumerus -14.2169 26.479 -103.828
rradius 21.0382
rwrist -25.5006
rhand -5.27161 12.1101
rfingers 7.12502
rthumb 20.5324 -16.8241
lclavicle -2.98177e-015 7.95139e-015
lhumerus -12.4447 -23.4103 77.1883
lradius 36.5643
lwrist 30.8466
lhand -2.63179 23.5367
lfingers 7.12502
lthumb 23.0673 52.1761
rfemur -9.57394 15.3082 -6.30787
rtibia 16.9637
rfoot -45.4469 -14.1413
rtoes 51.6428
lfemur -33.0519 30.1202 -21.5127
ltibia 72.3048
lfoot -34.8643 2.06791
ltoes 13.5863
994
root 7.39923 14.2861 -12.3354 -360.763 -38.9414 354.44
lowerback 20.6733 4.56026 -7.47906
upperback 0.418247 4.50082 2.45655
thorax -11.9783 2.61247 5.63751
lowerneck -10.2384 -10.4936 -7.69105
upperneck 15.3387 -14.6776 8.75265
head 7.62537 -6.80596 2.54327
rclavicle 3.46382e-014 -4.77083e-015
rhumerus -14.0704 26.5791 -103.954
rradius 20.7659
rwrist -25.1094
rhand -4.80751 12.8193
rfingers 7.12502
rthumb 20.9783 -16.0662
lclavicle 3.46382e-014 -4.77083e-015
lhumerus -12.212 -24.0493 76.6761
lradius 36.6612
lwrist 30.7003
lhand -2.50579 24.2678
lfingers 7.12502
lthumb 23.1882 52.892
rfemur -9.71354 12.5081 -6.36466
rtibia 17.4908
rfoot -42.5336 -14.2197
rtoes 51.0602
lfemur -32.8897 30.3079 -21.3356
ltibia 72.4061
lfoot -34.7008 2.11824
ltoes 12.9706
995
root 7.38236 14.2703 -12.3672 -361.072 -38.6675 354.898
lowerback 20.9218 4.58159 -7.92832
upperback 0.470924 4.40109 2.46476
thorax -12.0788 2.59328 5.93006
lowerneck -10.1202 -10.6013 -8.1068
upperneck 14.9827 -14.7803 9.03372
head 7.55224 -6.86532 2.69198
rclavicle 2.62893e-014 -3.97569e-016
rhumerus -14.0733 27.432 -103.899
rradius 21.1233
rwrist -25.3002
rhand -4.52957 10.956
rfingers 7.12502
rthumb 21.2454 -17.8996
lclavicle 2.62893e-014 -3.97569e-016
lhumerus -11.882 -23.9926 76.2675
lradius 36.79
lwrist 30.0796
lhand -2.59084 24.1089
lfingers 7.12502
lthumb 23.1066 52.7433
rfemur -10.3041 9.74538 -6.76764
rtibia 18.5981
rfoot -39.9113 -13.8688
rtoes 51.3371
lfemur -33.0338 30.0384 -21.6722
ltibia 72.5102
lfoot -34.7217 2.03872
ltoes 13.0923
996
root 7.35993 14.2529 -12.3997 -360.867 -38.2259 354.521
lowerback 20.9199 4.53637 -7.29738
upperback 0.620696 4.47685 2.33799
thorax -11.8534 2.57242 5.40106
lowerneck -10.2988 -10.9397 -7.77861
upperneck 14.8375 -15.2455 8.88346
head 7.53944 -7.0778 2.52841
rclavicle 1.07841e-013 -3.1408e-014
rhumerus -13.7306 27.0273 -103.776
rradius 20.6942
rwrist -24.4811
rhand 1.97426 -3.03828
rfingers 7.12502
rthumb 27.48 -31.0534
lclavicle 1.07841e-013 -3.1408e-014
lhumerus -11.3649 -25.2403 75.6143
lradius 37.1461
lwrist 29.2907
lhand -3.09519 23.3724
lfingers 7.12502
lthumb 22.6226 52.0666
rfemur -10.8429 7.14234 -6.40315
rtibia 19.8182
rfoot -37.1667 -14.3831
rtoes 49.9826
lfemur -33.4432 29.8201 -21.2158
ltibia 72.9861
lfoot -34.5982 1.84822
ltoes 12.7934
997
root 7.33409 14.2432 -12.4635 -360.706 -38.1415 354.114
lowerback 21.306 4.64669 -7.21652
upperback 0.729482 4.6212 2.42353
thorax -11.9687 2.63523 5.39053
lowerneck -10.0104 -10.9384 -7.50493
upperneck 14.47 -15.2462 8.77443
head 7.3386 -7.09104 2.47667
rclavicle -9.93923e-017 1.51076e-014
rhumerus -12.2465 23.625 -103.114
rradius 21.5792
rwrist -15.2039
rhand 1.43441 1.20435
rfingers 7.12502
rthumb 26.9636 -26.8917
lclavicle -9.93923e-017 1.51076e-014
lhumerus -10.8816 -25.936 75.0692
lradius 37.1988
lwrist 28.2436
lhand -3.65469 22.8664
lfingers 7.12502
lthumb 22.0855 51.6251
rfemur -11.5317 5.28939 -5.86092
rtibia 20.7769
rfoot -34.2568 -15.7905
rtoes 49.4083
lfemur -33.8598 29.973 -20.5974
ltibia 73.4693
lfoot -34.3917 1.70277
ltoes 12.4803
998
root 7.31069 14.2268 -12.5072 -360.736 -37.8889 353.958
lowerback 21.5667 4.72643 -6.99172
upperback 0.965617 4.75022 2.35691
thorax -11.8366 2.6648 5.137
lowerneck -9.55597 -11.1504 -7.8331
upperneck 13.6062 -15.5617 9.52629
head 7.09819 -7.23698 2.75923
rclavicle 3.0265e-014 9.14409e-015
rhumerus -13.5215 29.0639 -104.043
rradius 21.2683
rwrist -26.8107
rhand -3.97464 13.5704
rfingers 7.12502
rthumb 21.7783 -15.2244
lclavicle 3.0265e-014 9.14409e-015
lhumerus -10.1812 -26.9613 74.2255
lradius 37.7407
lwrist 28.0816
lhand -3.83904 22.4303
lfingers 7.12502
lthumb 21.9085 51.2099
rfemur -12.0522 3.30385 -5.57194
rtibia 21.7876
rfoot -32.1878 -16.6829
rtoes 47.4807
lfemur -34.0833 29.9231 -20.1955
ltibia 73.8359
lfoot -34.2754 1.17503
ltoes 13.2825
999
root 7.28753 14.222 -12.5219 -360.996 -37.6227 354.176
lowerback 21.455 4.64237 -6.81041
upperback 1.13614 4.67065 2.19753
thorax -11.5357 2.59764 4.88859
lowerneck -10.139 -11.368 -7.80137
upperneck 13.9723 -15.8648 9.50043
head 7.34046 -7.35128 2.66801
rclavicle -4.58696e-014 -1.11319e-014
rhumerus -13.8332 30.2971 -104.298
rradius 21.2877
rwrist -27.742
rhand -3.8831 9.68791
rfingers 7.12502
rthumb 21.8662 -19.0966
lclavicle -4.58696e-014 -1.11319e-014
lhumerus -9.89774 -27.9894 73.5019
lradius 38.3206
lwrist 27.9558
lhand -3.42056 22.8492
lfingers 7.12502
lthumb 22.3103 51.5812
rfemur -12.3286 0.739772 -5.71402
rtibia 22.6046
rfoot -28.1095 -18.8608
rtoes 43.7843
lfemur -33.975 29.7969 -20.2031
ltibia 73.8743
lfoot -34.1733 1.06551
ltoes 13.0107
1000
root 7.25302 14.207 -12.5645 -361.237 -37.5442 354.418
lowerback 21.5981 4.7607 -7.19173
upperback 1.14274 4.72178 2.1914
thorax -11.6473 2.64384 5.07653
lowerneck -9.64546 -11.4705 -8.78931
upperneck 13.9485 -16.0617 10.4595
head 7.43292 -7.44016 3.1128
rclavicle -1.82882e-014 5.96354e-015
rhumerus -14.0659 30.3506 -104.57
rradius 21.2256
rwrist -27.9642
rhand -4.42152 11.1016
rfingers 7.12502
rthumb 21.3491 -17.7423
lclavicle -1.82882e-014 5.96354e-015
lhumerus -9.73636 -29.2462 73.064
lradius 38.5984
lwrist 27.559
lhand -3.68796 22.476
lfingers 7.12502
lthumb 22.0536 51.2385
rfemur -12.9363 -1.20267 -5.86593
rtibia 23.6602
rfoot -26.7528 -17.4491
rtoes 44.8475
lfemur -34.0171 30.0253 -20.1222
ltibia 74.0236
lfoot -33.9647 1.1721
ltoes 12.123
1001
root 7.21407 14.1907 -12.5927 -361.48 -37.4597 354.491
lowerback 21.6215 4.98281 -7.10387
upperback 1.49624 5.00642 1.99474
thorax -11.2712 2.73994 4.71741
lowerneck -10.4493 -11.8283 -7.81878
upperneck 13.9556 -16.5659 9.97053
head 7.49768 -7.63805 2.70554
rclavicle -6.88789e-014 2.34566e-014
rhumerus -13.1526 28.9741 -104.205
rradius 20.8222
rwrist -26.6595
rhand -4.15188 13.4566
rfingers 7.12502
rthumb 21.6081 -15.3578
lclavicle -6.88789e-014 2.34566e-014
lhumerus -8.69059 -30.3993 72.0387
lradius 39.1596
lwrist 26.8475
lhand -3.1447 22.1634
lfingers 7.12502
lthumb 22.5751 50.8634
rfemur -13.3746 -2.61445 -5.92294
rtibia 24.8671
rfoot -25.7075 -16.149
rtoes 45.4963
lfemur -33.827 30.2357 -19.7784
ltibia 74.1625
lfoot -33.8994 0.643135
ltoes 12.4345
1002
root 7.19055 14.1772 -12.6193 -361.88 -37.0494 355.022
lowerback 21.6179 4.86806 -7.46087
upperback 1.62852 4.76613 1.97456
thorax -11.111 2.63616 4.98283
lowerneck -9.75809 -11.7605 -8.478
upperneck 13.2887 -16.4443 10.5697
head 7.26102 -7.61122 3.05502
rclavicle 2.68856e-014 -3.57812e-015
rhumerus -13.5268 30.5555 -104.445
rradius 21.0905
rwrist -28.4539
rhand -4.58907 14.0106
rfingers 7.12502
rthumb 21.1882 -14.8515
lclavicle 2.68856e-014 -3.57812e-015
lhumerus -8.8129 -31.1148 71.5703
lradius 40.1221
lwrist 26.2574
lhand -2.00207 23.4
lfingers 7.12502
lthumb 23.6714 51.9626
rfemur -13.8281 -4.92658 -6.40765
rtibia 25.9833
rfoot -22.7382 -16.4818
rtoes 43.4476
lfemur -33.8274 29.9793 -20.1214
ltibia 74.19
lfoot -33.8193 0.674608
ltoes 12.0722
